/* XPM */
static char *_5266df34de5418dd78c13081df370bd443ucIn30WhailOx[] = {
/* columns rows colors chars-per-pixel */
"32 32 7 1 ",
"  c None",
". c #412320",
"X c #434F65",
"o c #6F7F9F",
"O c #8895AF",
"+ c #A6B0C4",
"T c #030303",
/* pixels */
"                                ",
"                                ",
"                                ",
"                                ",
"             OOOOOO             ",
"             OOOOOO             ",
"       OOOOOXOOOOOOXOOOOO       ",
"       OOOOOX++++++XOOOOO       ",
"XOOOOOXOOOOOXooooooXOOOOOXOOOOOX",
"XOOOOOX+++++XooooooX+++++XOOOOOX",
"XOOOOOXoooooXooooooXoooooXOOOOOX",
"X+++++XoooooXooooooXoooooX+++++X",
"XoooooXoooootTTTTTTTTTTooXoooooX",
"XoooooTTTTTTTTTTTTTTTTTTTToooooX",
"XoooooTTTTTTTTTTTTTTTTTTTToooooX",
"XXXXXXTTTTTTTTTTTTTTTTTTTTXXXXXX",
"X+++++TTTTTTTTTTTTTTTTTTTT+++++X",
"XoooooTTTTTTTTTTTTTTTTTTTToooooX",
"XoooooTTTTTTTTTTTTTTTTTTTToooooX",
"XoooooTTTTTTTTTTTTTTTTTTTToooooX",
"XoooooTTTTTTTTTTTTTTTTTTTToooooX",
"XXXXXXTTTTTTTTTTTTTTTTTTTTXXXXXX",
"X+++++TTTTTTTTTTTTTTTTTTTT+++++X",
"XoooooTTTTTTTTTTTTTTTTTTTToooooX",
"XoooooTTTTTTTTTTTTTTTTTTTToooooX",
"XoooooTTTTTTTTTTTTTTTTTTTToooooX",
"XoooooTTTTTTTTTTTTTTTTTTTToooooX",
"XXXXXXTTTTTTTTTTTTTTTTTTTTXXXXXX",
"X+++++TTTTTTTTTTTTTTTTTTTT+++++X",
"Xooooo....................oooooX",
"Xooooo....................oooooX",
"Xooooo....................oooooX"
};
